# https://github.com/mikedh/trimesh
mtllib material.mtl
usemtl material_0
v 20.22479450 -20.22479450 -20.22479450
v 20.22479450 -20.22479450 -20.22479450
v 20.22479450 -20.22479450 -20.22479450
v 20.22479450 -20.22479450 20.22479450
v 20.22479450 -20.22479450 20.22479450
v 20.22479450 -20.22479450 20.22479450
v -20.22479450 -20.22479450 20.22479450
v -20.22479450 -20.22479450 20.22479450
v -20.22479450 -20.22479450 20.22479450
v -20.22479450 -20.22479450 -20.22479450
v -20.22479450 -20.22479450 -20.22479450
v -20.22479450 -20.22479450 -20.22479450
v 20.22479450 20.22479450 -20.22477428
v 20.22479450 20.22479450 -20.22477428
v 20.22479450 20.22479450 -20.22477428
v 20.22477428 20.22479450 20.22481473
v 20.22477428 20.22479450 20.22481473
v 20.22477428 20.22479450 20.22481473
v -20.22479450 20.22479450 20.22479450
v -20.22479450 20.22479450 20.22479450
v -20.22479450 20.22479450 20.22479450
v -20.22479450 20.22479450 -20.22479450
v -20.22479450 20.22479450 -20.22479450
v -20.22479450 20.22479450 -20.22479450
vn 1.00000000 0.00000000 0.00000000
vn 0.00000000 0.00000000 -1.00000000
vn 0.00000000 -1.00000000 0.00000000
vn 0.00000000 0.00000000 1.00000000
vn 1.00000000 0.00000000 0.00000000
vn 0.00000000 -1.00000000 0.00000000
vn 0.00000000 0.00000000 1.00000000
vn -1.00000000 0.00000000 0.00000000
vn 0.00000000 -1.00000000 0.00000000
vn 0.00000000 0.00000000 -1.00000000
vn -1.00000000 0.00000000 0.00000000
vn 0.00000000 -1.00000000 0.00000000
vn 0.00000000 1.00000000 0.00000000
vn 1.00000000 0.00000000 0.00000000
vn 0.00000000 0.00000000 -1.00000000
vn 0.00000000 1.00000000 0.00000000
vn 1.00000000 0.00000000 0.00000000
vn 0.00000000 0.00000000 1.00000000
vn 0.00000000 0.00000000 1.00000000
vn -1.00000000 0.00000000 0.00000000
vn 0.00000000 1.00000000 0.00000000
vn -1.00000000 0.00000000 0.00000000
vn 0.00000000 1.00000000 0.00000000
vn 0.00000000 0.00000000 -1.00000000
vt 0.33333300 0.33333300
vt 0.33333300 0.33333300
vt 0.66666700 0.33333300
vt 0.33333300 0.33333300
vt 0.33333300 0.00000000
vt 1.00000000 0.33333300
vt 0.66666700 0.33333300
vt 0.33333300 1.00000000
vt 1.00000000 0.66666700
vt 0.33333300 0.66666700
vt 0.33333300 0.66666700
vt 0.66666700 0.66666700
vt 1.00000000 0.00000000
vt 0.00000000 0.33333300
vt 0.00000000 0.33333300
vt 0.66666700 0.00000000
vt 0.00000000 0.00000000
vt 0.33333300 0.00000000
vt 0.66666700 0.00000000
vt 0.00000000 1.00000000
vt 0.66666700 0.33333300
vt 0.00000000 0.66666700
vt 1.00000000 0.33333300
vt 0.00000000 0.66666700
f 6/6/6 9/9/9 12/12/12
f 23/23/23 21/21/21 16/16/16
f 14/14/14 17/17/17 5/5/5
f 18/18/18 19/19/19 7/7/7
f 8/8/8 20/20/20 22/22/22
f 2/2/2 10/10/10 24/24/24
f 3/3/3 6/6/6 12/12/12
f 13/13/13 23/23/23 16/16/16
f 1/1/1 14/14/14 5/5/5
f 4/4/4 18/18/18 7/7/7
f 11/11/11 8/8/8 22/22/22
f 15/15/15 2/2/2 24/24/24

